<svg width="95" height="89" viewBox="0 0 95 89" fill="none" xmlns="http://www.w3.org/2000/svg">
<g clip-path="url(#clip0_55_50)">
<path d="M47.7331 88.8459C21.711 88.8459 0.617188 69.0294 0.617188 44.5829C0.617188 20.1364 21.711 0.319824 47.7331 0.319824C73.7552 0.319824 94.849 20.1364 94.849 44.5829C94.849 69.0294 73.7552 88.8459 47.7331 88.8459Z" fill="#1C1919"/>
<path d="M77.7685 13.0449H17.6978L22.9968 69.4808L47.7331 76.1207L72.4695 69.4808L77.7685 13.0449Z" fill="#0277BD"/>
<path d="M47.7332 18.0255V70.9745L67.5207 65.6626L71.9378 18.0255H47.7332Z" fill="#039BE5"/>
<path d="M63.8117 26.3248H47.7332V32.9648H56.391L55.8619 39.6023H47.7332V46.2422H55.5066L54.9774 53.7131L47.7332 56.0352V63.0066L61.69 58.6912L62.9272 39.6023L63.8117 26.3248Z" fill="white"/>
<path d="M47.7332 26.3248V32.9648H32.0074L31.4783 26.3248H47.7332ZM39.6044 39.6023L39.9597 46.2422H47.7332V39.6023H39.6044ZM40.3125 49.5634H33.2446L33.7763 58.6912L47.7332 63.0066V56.0352L40.4889 53.7131L40.3125 49.5634Z" fill="white"/>
</g>
<defs>
<clipPath id="clip0_55_50">
<rect width="94.2318" height="88.5261" fill="white" transform="translate(0.617188 0.319824)"/>
</clipPath>
</defs>
</svg>
