<svg width="95" height="89" viewBox="0 0 95 89" fill="none" xmlns="http://www.w3.org/2000/svg">
<g clip-path="url(#clip0_55_35)">
<path d="M47.2936 88.7597C21.2715 88.7597 0.177734 68.9432 0.177734 44.4967C0.177734 20.0502 21.2715 0.233643 47.2936 0.233643C73.3158 0.233643 94.4095 20.0502 94.4095 44.4967C94.4095 68.9432 73.3158 88.7597 47.2936 88.7597Z" fill="#1C1919"/>
<path d="M79.4508 41.3436L50.65 14.2867C49.7681 13.4582 48.5309 12.9587 47.2937 12.9587C46.0565 12.9587 44.8193 13.4582 43.9374 14.2867L37.754 20.0958L44.9957 26.9014C45.7038 26.57 46.4093 26.4043 47.2937 26.4043C50.2973 26.4043 52.5953 28.5608 52.5953 31.3849C52.5953 32.2134 52.4164 32.8786 52.0636 33.5413L59.1315 40.1813C59.8396 39.8499 60.5451 39.6842 61.4295 39.6842C64.4331 39.6842 66.7285 41.8407 66.7285 44.6623C66.7285 47.484 64.4331 49.6429 61.4295 49.6429C58.426 49.6429 56.128 47.484 56.128 44.6623C56.128 43.8338 56.3043 43.1687 56.6571 42.5059L49.5918 35.8659C49.4128 35.8659 49.2365 36.0316 49.0601 36.0316V53.2931C51.1817 53.9582 52.5953 55.7833 52.5953 57.9422C52.5953 60.7639 50.2973 62.9204 47.2937 62.9204C44.2902 62.9204 41.9922 60.7639 41.9922 57.9422C41.9922 55.7833 43.4058 53.9582 45.5274 53.2931V35.8659C43.4058 35.2007 41.9922 33.3756 41.9922 31.2168C41.9922 30.3883 42.1711 29.7231 42.5239 29.0603L35.2796 22.2547L15.1367 41.3436C14.2548 42.1721 13.7231 43.3344 13.7231 44.4966C13.7231 45.6589 14.2548 46.8212 15.1367 47.6497L43.9374 74.7066C44.8193 75.535 46.0565 76.0345 47.2937 76.0345C48.5309 76.0345 49.7681 75.535 50.65 74.7066L79.4508 47.6497C80.3326 46.8212 80.8643 45.6589 80.8643 44.4966C80.8643 43.3344 80.3326 42.1721 79.4508 41.3436Z" fill="#F4511E"/>
</g>
<defs>
<clipPath id="clip0_55_35">
<rect width="94.2318" height="88.5261" fill="white" transform="translate(0.177734 0.233643)"/>
</clipPath>
</defs>
</svg>
