<svg width="96" height="89" viewBox="0 0 96 89" fill="none" xmlns="http://www.w3.org/2000/svg">
<path d="M43.7698 7.97967C25.7087 9.82397 11.1813 23.4717 9.21816 40.0704C7.255 57.4067 17.8561 72.8988 33.954 78.8005C35.1319 79.1694 36.3098 78.4317 36.3098 76.9562V71.0545C36.3098 71.0545 34.7393 71.4234 32.7761 71.4234C27.2793 71.4234 24.9235 66.9971 24.5308 64.415C24.1382 62.9396 23.3529 61.833 22.175 60.7265C20.9971 60.3576 20.6045 60.3576 20.6045 59.9887C20.6045 59.251 21.7824 59.251 22.175 59.251C24.5308 59.251 26.494 61.833 27.2793 62.9396C29.2424 65.8905 31.5982 66.6282 32.7761 66.6282C34.3467 66.6282 35.5245 66.2593 36.3098 65.8905C36.7024 63.3085 37.8803 60.7265 40.2361 59.251C31.2056 57.4067 24.5308 52.6116 24.5308 44.4967C24.5308 40.4392 26.494 36.3818 29.2424 33.4309C28.8498 32.6932 28.4572 30.8489 28.4572 28.2669C28.4572 26.7915 28.4572 24.5783 29.6351 22.3652C29.6351 22.3652 35.1319 22.3652 40.6288 27.1603C42.5919 26.4226 45.3404 26.0537 48.0888 26.0537C50.8372 26.0537 53.5856 26.4226 55.9414 27.1603C61.0457 22.3652 66.9352 22.3652 66.9352 22.3652C67.7204 24.5783 67.7204 26.7915 67.7204 28.2669C67.7204 31.2178 67.3278 32.6932 66.9352 33.4309C69.6836 36.3818 71.6467 40.0704 71.6467 44.4967C71.6467 52.6116 64.972 57.4067 55.9414 59.251C58.2972 61.0953 59.8678 64.415 59.8678 67.7348V77.3251C59.8678 78.4317 61.0457 79.5383 62.6162 79.1694C77.1436 73.6365 87.3521 60.3576 87.3521 44.8655C87.3521 22.734 67.3278 5.39766 43.7698 7.97967Z" fill="white"/>
</svg>
