<svg width="95" height="89" viewBox="0 0 95 89" fill="none" xmlns="http://www.w3.org/2000/svg">
<g clip-path="url(#clip0_55_41)">
<path d="M47.3505 88.5261C21.3284 88.5261 0.234619 68.7095 0.234619 44.263C0.234619 19.8165 21.3284 0 47.3505 0C73.3727 0 94.4664 19.8165 94.4664 44.263C94.4664 68.7095 73.3727 88.5261 47.3505 88.5261Z" fill="#1C1919"/>
<path d="M77.3859 12.7251H17.3152L22.6142 69.161L47.3505 75.8009L72.0869 69.161L77.3859 12.7251Z" fill="#E65100"/>
<path d="M47.3506 17.7057V70.6547L67.1381 65.3427L71.5552 17.7057H47.3506Z" fill="#FF6D00"/>
<path d="M47.3506 45.9224V39.2825H62.5446L61.3074 58.3714L47.3506 62.6867V55.7154L54.5949 53.3932L55.124 45.9224H47.3506ZM63.0763 32.6449L63.6055 26.005H47.3506V32.6449H63.0763Z" fill="white"/>
<path d="M47.3505 55.7154V62.6867L33.3936 58.3714L32.6856 49.2436H39.7534L40.1062 53.3932L47.3505 55.7154ZM38.6926 32.6449H47.3505V26.005H31.272L32.5092 45.9224H47.3505V39.2825H39.2218L38.6926 32.6449Z" fill="#EEEEEE"/>
</g>
<defs>
<clipPath id="clip0_55_41">
<rect width="94.2318" height="88.5261" fill="white" transform="translate(0.234619)"/>
</clipPath>
</defs>
</svg>
