<svg width="95" height="89" viewBox="0 0 95 89" fill="none" xmlns="http://www.w3.org/2000/svg">
<g clip-path="url(#clip0_55_63)">
<path d="M47.1159 88.5261C21.0938 88.5261 0 68.7095 0 44.263C0 19.8165 21.0938 0 47.1159 0C73.138 0 94.2318 19.8165 94.2318 44.263C94.2318 68.7095 73.138 88.5261 47.1159 88.5261Z" fill="#1C1919"/>
<path d="M15.3115 74.1416V14.3845H78.92V74.1416H15.3115Z" fill="#FFD600"/>
<path d="M56.9011 59.1134C58.123 60.9793 59.4522 62.766 62.2666 62.766C64.631 62.766 65.8708 61.6637 65.8708 60.1364C65.8708 58.3089 64.5876 57.6605 61.9879 56.5967L60.5616 56.0252C56.4461 54.385 53.711 52.3294 53.711 47.99C53.711 43.9892 56.9701 40.9442 62.0646 40.9442C65.6919 40.9442 68.2966 42.1257 70.178 45.2163L65.7353 47.8843C64.7589 46.2442 63.7006 45.5982 62.0646 45.5982C60.3929 45.5982 59.3346 46.5876 59.3346 47.8843C59.3346 49.4837 60.3929 50.1297 62.8417 51.1214L64.2655 51.693C69.1172 53.6333 71.8523 55.6145 71.8523 60.0692C71.8523 64.8696 67.8161 67.5016 62.3995 67.5016C57.1005 67.5016 54.0918 65.0041 52.4175 61.911L56.9011 59.1134ZM36.431 59.2503C37.3232 60.7536 38.683 61.911 40.636 61.911C42.5071 61.911 43.5833 61.217 43.5833 58.5202V40.9442H49.4702V59.3703C49.4702 64.9585 46.0193 67.5016 40.9811 67.5016C36.4285 67.5016 33.1412 64.603 31.8018 61.911L36.431 59.2503Z" fill="#000001"/>
</g>
<defs>
<clipPath id="clip0_55_63">
<rect width="94.2318" height="88.5261" fill="white"/>
</clipPath>
</defs>
</svg>
