<svg width="85" height="85" viewBox="0 0 85 85" fill="none" xmlns="http://www.w3.org/2000/svg">
<path fill-rule="evenodd" clip-rule="evenodd" d="M1.05114e-06 7.10137C1.05114e-06 5.21797 0.748178 3.41171 2.07994 2.07995C3.41171 0.748186 5.21797 9.46712e-06 7.10136 9.46712e-06H77.8909C78.8243 -0.00151494 79.7487 0.181071 80.6115 0.537313C81.4741 0.893554 82.2581 1.41646 82.9184 2.07608C83.5788 2.73571 84.1026 3.5191 84.4597 4.38141C84.8169 5.24372 85.0005 6.16802 85 7.10137V77.8909C85.001 78.8244 84.8179 79.749 84.4613 80.6117C84.1046 81.4745 83.5814 82.2584 82.9214 82.9187C82.2615 83.579 81.4778 84.1027 80.6153 84.4598C79.7528 84.8169 78.8283 85.0005 77.8948 85H7.10136C6.16847 85 5.24473 84.8162 4.3829 84.4591C3.52107 84.102 2.73805 83.5785 2.07858 82.9187C1.4191 82.2589 0.896101 81.4756 0.539451 80.6135C0.182801 79.7515 -0.000506506 78.8277 1.05114e-06 77.8948V7.10137ZM33.6445 32.4082H45.1543V38.1882C46.8157 34.8655 51.0657 31.875 57.4523 31.875C69.6961 31.875 72.5977 38.4934 72.5977 50.6368V73.1309H60.207V53.4032C60.207 46.4873 58.5457 42.585 54.3266 42.585C48.4732 42.585 46.0391 46.7925 46.0391 53.4032V73.1309H33.6445V32.4082ZM12.3945 72.6016H24.7891V31.875H12.3945V72.5977V72.6016ZM26.5625 18.5918C26.5859 19.6531 26.397 20.7083 26.0071 21.6955C25.6171 22.6828 25.0339 23.5822 24.2916 24.341C23.5493 25.0998 22.6629 25.7027 21.6845 26.1143C20.706 26.526 19.6552 26.738 18.5938 26.738C17.5323 26.738 16.4815 26.526 15.503 26.1143C14.5246 25.7027 13.6382 25.0998 12.8959 24.341C12.1536 23.5822 11.5704 22.6828 11.1804 21.6955C10.7905 20.7083 10.6016 19.6531 10.625 18.5918C10.6709 16.5088 11.5306 14.5265 13.02 13.0695C14.5094 11.6125 16.5102 10.7966 18.5938 10.7966C20.6773 10.7966 22.6781 11.6125 24.1675 13.0695C25.6569 14.5265 26.5166 16.5088 26.5625 18.5918Z" fill="white"/>
</svg>
