<svg width="70" height="70" viewBox="0 0 960 880" fill="none" xmlns="http://www.w3.org/2000/svg">
<rect x="400" y="840" width="40" height="40" fill="white"/>
<rect x="520" y="840" width="40" height="40" fill="white"/>
<rect x="560" y="800" width="40" height="40" fill="white"/>
<rect x="360" y="800" width="40" height="40" fill="white"/>
<rect x="560" y="760" width="40" height="40" fill="white"/>
<rect x="360" y="760" width="40" height="40" fill="white"/>
<rect x="320" y="760" width="40" height="40" fill="white"/>
<rect x="600" y="760" width="40" height="40" fill="white"/>
<rect x="560" y="720" width="40" height="40" fill="white"/>
<rect x="360" y="720" width="40" height="40" fill="white"/>
<rect x="320" y="720" width="40" height="40" fill="white"/>
<rect x="600" y="720" width="40" height="40" fill="white"/>
<rect x="400" y="720" width="40" height="40" fill="white"/>
<path d="M520 720H560V760H520V720Z" fill="white"/>
<rect x="480" y="720" width="40" height="40" fill="white"/>
<path d="M440 720H480V760H440V720Z" fill="white"/>
<path d="M280 720H320V760H280V720Z" fill="white"/>
<path d="M640 720H680V760H640V720Z" fill="white"/>
<rect x="560" y="680" width="40" height="40" fill="white"/>
<rect x="360" y="680" width="40" height="40" fill="white"/>
<rect x="320" y="680" width="40" height="40" fill="white"/>
<rect x="600" y="680" width="40" height="40" fill="white"/>
<rect x="400" y="680" width="40" height="40" fill="white"/>
<path d="M520 680H560V720H520V680Z" fill="white"/>
<rect x="480" y="680" width="40" height="40" fill="white"/>
<path d="M440 680H480V720H440V680Z" fill="white"/>
<path d="M280 680H320V720H280V680Z" fill="white"/>
<path d="M640 680H680V720H640V680Z" fill="white"/>
<path d="M680 680H720V720H680V680Z" fill="white"/>
<path d="M240 680H280V720H240V680Z" fill="white"/>
<rect x="560" y="640" width="40" height="40" fill="white"/>
<rect x="360" y="640" width="40" height="40" fill="white"/>
<rect x="320" y="640" width="40" height="40" fill="white"/>
<rect x="600" y="640" width="40" height="40" fill="white"/>
<rect x="400" y="640" width="40" height="40" fill="white"/>
<path d="M520 640H560V680H520V640Z" fill="white"/>
<rect x="480" y="640" width="40" height="40" fill="white"/>
<path d="M440 640H480V680H440V640Z" fill="white"/>
<path d="M280 640H320V680H280V640Z" fill="white"/>
<path d="M640 640H680V680H640V640Z" fill="white"/>
<path d="M680 640H720V680H680V640Z" fill="white"/>
<path d="M240 640H280V680H240V640Z" fill="white"/>
<rect x="560" y="600" width="40" height="40" fill="white"/>
<rect x="360" y="600" width="40" height="40" fill="white"/>
<rect x="320" y="600" width="40" height="40" fill="white"/>
<rect x="600" y="600" width="40" height="40" fill="white"/>
<rect x="400" y="600" width="40" height="40" fill="white"/>
<path d="M520 600H560V640H520V600Z" fill="white"/>
<rect x="480" y="600" width="40" height="40" fill="white"/>
<path d="M440 600H480V640H440V600Z" fill="white"/>
<path d="M280 600H320V640H280V600Z" fill="white"/>
<path d="M640 600H680V640H640V600Z" fill="white"/>
<path d="M680 600H720V640H680V600Z" fill="white"/>
<path d="M240 600H280V640H240V600Z" fill="white"/>
<rect x="560" y="560" width="40" height="40" fill="white"/>
<rect x="360" y="560" width="40" height="40" fill="white"/>
<rect x="320" y="560" width="40" height="40" fill="white"/>
<rect x="600" y="560" width="40" height="40" fill="white"/>
<rect x="400" y="560" width="40" height="40" fill="white"/>
<path d="M520 560H560V600H520V560Z" fill="white"/>
<rect x="480" y="560" width="40" height="40" fill="white"/>
<path d="M440 560H480V600H440V560Z" fill="white"/>
<path d="M280 560H320V600H280V560Z" fill="white"/>
<path d="M640 560H680V600H640V560Z" fill="white"/>
<rect x="560" y="520" width="40" height="40" fill="white"/>
<rect x="360" y="520" width="40" height="40" fill="white"/>
<rect x="320" y="520" width="40" height="40" fill="white"/>
<rect x="600" y="520" width="40" height="40" fill="white"/>
<rect x="400" y="520" width="40" height="40" fill="white"/>
<path d="M520 520H560V560H520V520Z" fill="white"/>
<rect x="480" y="520" width="40" height="40" fill="white"/>
<path d="M440 520H480V560H440V520Z" fill="white"/>
<rect x="560" y="480" width="40" height="40" fill="white"/>
<rect x="360" y="480" width="40" height="40" fill="white"/>
<rect x="400" y="480" width="40" height="40" fill="white"/>
<path d="M520 480H560V520H520V480Z" fill="white"/>
<rect x="480" y="480" width="40" height="40" fill="white"/>
<path d="M440 480H480V520H440V480Z" fill="white"/>
<rect x="400" y="440" width="40" height="40" fill="white"/>
<path d="M520 440H560V480H520V440Z" fill="white"/>
<rect x="480" y="440" width="40" height="40" fill="white"/>
<path d="M440 440H480V480H440V440Z" fill="white"/>
<path d="M280 440H320V480H280V440Z" fill="white"/>
<path d="M240 440H280V480H240V440Z" fill="white"/>
<path d="M0 440H40V480H0V440Z" fill="white"/>
<path d="M640 440H680V480H640V440Z" fill="white"/>
<path d="M680 440H720V480H680V440Z" fill="white"/>
<path d="M920 440H960V480H920V440Z" fill="white"/>
<rect x="400" y="400" width="40" height="40" fill="white"/>
<path d="M520 400H560V440H520V400Z" fill="white"/>
<rect x="480" y="400" width="40" height="40" fill="white"/>
<path d="M440 400H480V440H440V400Z" fill="white"/>
<path d="M280 400H320V440H280V400Z" fill="white"/>
<path d="M240 400H280V440H240V400Z" fill="white"/>
<path d="M0 400H40V440H0V400Z" fill="white"/>
<path d="M640 400H680V440H640V400Z" fill="white"/>
<path d="M680 400H720V440H680V400Z" fill="white"/>
<path d="M920 400H960V440H920V400Z" fill="white"/>
<rect x="400" y="360" width="40" height="40" fill="white"/>
<path d="M520 360H560V400H520V360Z" fill="white"/>
<rect x="480" y="360" width="40" height="40" fill="white"/>
<path d="M440 360H480V400H440V360Z" fill="white"/>
<path d="M40 360H80V400H40V360Z" fill="white"/>
<path d="M0 360H40V400H0V360Z" fill="white"/>
<path d="M880 360H920V400H880V360Z" fill="white"/>
<path d="M920 360H960V400H920V360Z" fill="white"/>
<rect x="400" y="320" width="40" height="40" fill="white"/>
<path d="M520 320H560V360H520V320Z" fill="white"/>
<rect x="480" y="320" width="40" height="40" fill="white"/>
<path d="M440 320H480V360H440V320Z" fill="white"/>
<path d="M40 320H80V360H40V320Z" fill="white"/>
<path d="M80 320H120V360H80V320Z" fill="white"/>
<path d="M880 320H920V360H880V320Z" fill="white"/>
<path d="M840 320H880V360H840V320Z" fill="white"/>
<path d="M800 320H840V360H800V320Z" fill="white"/>
<path d="M760 320H800V360H760V320Z" fill="white"/>
<path d="M120 320H160V360H120V320Z" fill="white"/>
<path d="M160 320H200V360H160V320Z" fill="white"/>
<path d="M360 320H400V360H360V320Z" fill="white"/>
<path d="M560 320H600V360H560V320Z" fill="white"/>
<rect x="400" y="280" width="40" height="40" fill="white"/>
<path d="M520 280H560V320H520V280Z" fill="white"/>
<rect x="480" y="280" width="40" height="40" fill="white"/>
<path d="M440 280H480V320H440V280Z" fill="white"/>
<path d="M40 280H80V320H40V280Z" fill="white"/>
<path d="M80 280H120V320H80V280Z" fill="white"/>
<path d="M880 280H920V320H880V280Z" fill="white"/>
<path d="M840 280H880V320H840V280Z" fill="white"/>
<path d="M800 280H840V320H800V280Z" fill="white"/>
<path d="M760 280H800V320H760V280Z" fill="white"/>
<path d="M120 280H160V320H120V280Z" fill="white"/>
<path d="M160 280H200V320H160V280Z" fill="white"/>
<path d="M360 280H400V320H360V280Z" fill="white"/>
<path d="M560 280H600V320H560V280Z" fill="white"/>
<path d="M600 280H640V320H600V280Z" fill="white"/>
<path d="M640 280H680V320H640V280Z" fill="white"/>
<path d="M680 280H720V320H680V280Z" fill="white"/>
<path d="M720 280H760V320H720V280Z" fill="white"/>
<path d="M320 280H360V320H320V280Z" fill="white"/>
<path d="M280 280H320V320H280V280Z" fill="white"/>
<path d="M240 280H280V320H240V280Z" fill="white"/>
<path d="M200 280H240V320H200V280Z" fill="white"/>
<rect x="400" y="240" width="40" height="40" fill="white"/>
<path d="M520 240H560V280H520V240Z" fill="white"/>
<rect x="480" y="240" width="40" height="40" fill="white"/>
<path d="M440 240H480V280H440V240Z" fill="white"/>
<path d="M80 240H120V280H80V240Z" fill="white"/>
<path d="M840 240H880V280H840V240Z" fill="white"/>
<path d="M800 240H840V280H800V240Z" fill="white"/>
<path d="M760 240H800V280H760V240Z" fill="white"/>
<path d="M120 240H160V280H120V240Z" fill="white"/>
<path d="M160 240H200V280H160V240Z" fill="white"/>
<path d="M360 240H400V280H360V240Z" fill="white"/>
<path d="M560 240H600V280H560V240Z" fill="white"/>
<path d="M600 240H640V280H600V240Z" fill="white"/>
<path d="M640 240H680V280H640V240Z" fill="white"/>
<path d="M680 240H720V280H680V240Z" fill="white"/>
<path d="M720 240H760V280H720V240Z" fill="white"/>
<path d="M320 240H360V280H320V240Z" fill="white"/>
<path d="M280 240H320V280H280V240Z" fill="white"/>
<path d="M240 240H280V280H240V240Z" fill="white"/>
<path d="M200 240H240V280H200V240Z" fill="white"/>
<rect x="400" y="200" width="40" height="40" fill="white"/>
<path d="M520 200H560V240H520V200Z" fill="white"/>
<rect x="480" y="200" width="40" height="40" fill="white"/>
<path d="M440 200H480V240H440V200Z" fill="white"/>
<path d="M80 200H120V240H80V200Z" fill="white"/>
<path d="M840 200H880V240H840V200Z" fill="white"/>
<path d="M760 200H800V240H760V200Z" fill="white"/>
<path d="M160 200H200V240H160V200Z" fill="white"/>
<path d="M360 200H400V240H360V200Z" fill="white"/>
<path d="M560 200H600V240H560V200Z" fill="white"/>
<path d="M600 200H640V240H600V200Z" fill="white"/>
<path d="M640 200H680V240H640V200Z" fill="white"/>
<path d="M680 200H720V240H680V200Z" fill="white"/>
<path d="M720 200H760V240H720V200Z" fill="white"/>
<path d="M320 200H360V240H320V200Z" fill="white"/>
<path d="M280 200H320V240H280V200Z" fill="white"/>
<path d="M240 200H280V240H240V200Z" fill="white"/>
<path d="M200 200H240V240H200V200Z" fill="white"/>
<rect x="400" y="160" width="40" height="40" fill="white"/>
<path d="M520 160H560V200H520V160Z" fill="white"/>
<rect x="480" y="160" width="40" height="40" fill="white"/>
<path d="M440 160H480V200H440V160Z" fill="white"/>
<path d="M40 160H80V200H40V160Z" fill="white"/>
<path d="M880 160H920V200H880V160Z" fill="white"/>
<path d="M360 160H400V200H360V160Z" fill="white"/>
<path d="M560 160H600V200H560V160Z" fill="white"/>
<path d="M600 160H640V200H600V160Z" fill="white"/>
<path d="M640 160H680V200H640V160Z" fill="white"/>
<path d="M680 160H720V200H680V160Z" fill="white"/>
<path d="M720 160H760V200H720V160Z" fill="white"/>
<path d="M320 160H360V200H320V160Z" fill="white"/>
<path d="M280 160H320V200H280V160Z" fill="white"/>
<path d="M240 160H280V200H240V160Z" fill="white"/>
<path d="M200 160H240V200H200V160Z" fill="white"/>
<rect x="400" y="120" width="40" height="40" fill="white"/>
<path d="M520 120H560V160H520V120Z" fill="white"/>
<rect x="480" y="120" width="40" height="40" fill="white"/>
<path d="M440 120H480V160H440V120Z" fill="white"/>
<path d="M40 120H80V160H40V120Z" fill="white"/>
<path d="M880 120H920V160H880V120Z" fill="white"/>
<path d="M360 120H400V160H360V120Z" fill="white"/>
<path d="M560 120H600V160H560V120Z" fill="white"/>
<path d="M600 120H640V160H600V120Z" fill="white"/>
<path d="M640 120H680V160H640V120Z" fill="white"/>
<path d="M680 120H720V160H680V120Z" fill="white"/>
<path d="M720 120H760V160H720V120Z" fill="white"/>
<path d="M320 120H360V160H320V120Z" fill="white"/>
<path d="M280 120H320V160H280V120Z" fill="white"/>
<path d="M240 120H280V160H240V120Z" fill="white"/>
<path d="M200 120H240V160H200V120Z" fill="white"/>
<rect x="400" y="80" width="40" height="40" fill="white"/>
<path d="M520 80H560V120H520V80Z" fill="white"/>
<rect x="480" y="80" width="40" height="40" fill="white"/>
<path d="M440 80H480V120H440V80Z" fill="white"/>
<path d="M80 80H120V120H80V80Z" fill="white"/>
<path d="M840 80H880V120H840V80Z" fill="white"/>
<path d="M360 80H400V120H360V80Z" fill="white"/>
<path d="M560 80H600V120H560V80Z" fill="white"/>
<path d="M680 80H720V120H680V80Z" fill="white"/>
<path d="M720 80H760V120H720V80Z" fill="white"/>
<path d="M240 80H280V120H240V80Z" fill="white"/>
<path d="M200 80H240V120H200V80Z" fill="white"/>
<path d="M80 40H120V80H80V40Z" fill="white"/>
<path d="M840 40H880V80H840V40Z" fill="white"/>
<path d="M680 40H720V80H680V40Z" fill="white"/>
<path d="M720 40H760V80H720V40Z" fill="white"/>
<path d="M240 40H280V80H240V40Z" fill="white"/>
<path d="M200 40H240V80H200V40Z" fill="white"/>
<path d="M120 40H160V80H120V40Z" fill="white"/>
<path d="M800 40H840V80H800V40Z" fill="white"/>
<path d="M760 0H800V40H760V0Z" fill="white"/>
<path d="M720 0H760V40H720V0Z" fill="white"/>
<path d="M160 0H200V40H160V0Z" fill="white"/>
<path d="M200 0H240V40H200V0Z" fill="white"/>
<path d="M120 0H160V40H120V0Z" fill="white"/>
<path d="M800 0H840V40H800V0Z" fill="white"/>
</svg>
